<svg id="visual" viewBox="0 0 900 600" width="900" height="600" xmlns="http://www.w3.org/2000/svg" xmlns:xlink="http://www.w3.org/1999/xlink" version="1.1"><g><g transform="translate(555 228)"><path d="M50.9 -53.5C70.3 -44.4 93.2 -32.4 99.5 -14.9C105.8 2.7 95.5 26 81.8 45C68.2 64 51.2 78.9 33.5 80.3C15.8 81.6 -2.5 69.4 -27.4 64.9C-52.2 60.3 -83.5 63.3 -98 50.6C-112.5 37.9 -110.2 9.4 -101 -13.4C-91.7 -36.3 -75.5 -53.5 -57.5 -62.8C-39.6 -72.1 -19.8 -73.4 -2 -71C15.8 -68.7 31.5 -62.5 50.9 -53.5Z" stroke="#2374E1" fill="none" stroke-width="20"></path></g><g transform="translate(801 27)"><path d="M51.8 -62.9C64.4 -51.3 69.8 -32.3 78.6 -9.8C87.4 12.7 99.7 38.7 92.5 55.4C85.2 72.2 58.5 79.8 34.5 83.8C10.4 87.9 -11 88.4 -26.2 79.5C-41.3 70.7 -50.3 52.5 -62.5 34.5C-74.7 16.6 -90.2 -1 -92.1 -20.7C-93.9 -40.4 -82.2 -62.2 -64.6 -73C-47 -83.8 -23.5 -83.5 -1.9 -81.2C19.7 -78.9 39.3 -74.6 51.8 -62.9Z" stroke="#2374E1" fill="none" stroke-width="20"></path></g><g transform="translate(776 490)"><path d="M60 -67.5C78.7 -55.9 95.3 -37.8 103.3 -14.9C111.3 8 110.6 35.8 95.2 47.8C79.7 59.8 49.4 56.2 26.1 59.2C2.8 62.3 -13.5 72.1 -25.9 68.6C-38.3 65.2 -46.8 48.5 -53.9 32.8C-61 17 -66.7 2.1 -72 -20.5C-77.3 -43.1 -82.2 -73.5 -70.2 -86.2C-58.1 -99 -29 -94.2 -4.2 -89.2C20.7 -84.2 41.4 -79.1 60 -67.5Z" stroke="#2374E1" fill="none" stroke-width="20"></path></g><g transform="translate(238 244)"><path d="M46.6 -55C63.1 -41.6 81.1 -29.6 94 -8.8C106.9 11.9 114.7 41.3 103.5 58.9C92.3 76.5 62.2 82.4 38.6 79.4C15.1 76.3 -2 64.4 -16.9 55.1C-31.7 45.9 -44.4 39.4 -63.1 26.9C-81.7 14.3 -106.4 -4.4 -107.9 -23.1C-109.5 -41.8 -88 -60.6 -66.2 -73C-44.4 -85.4 -22.2 -91.5 -3.6 -87.2C15 -82.9 30 -68.3 46.6 -55Z" stroke="#2374E1" fill="none" stroke-width="20"></path></g><g transform="translate(438 590)"><path d="M47.6 -63.4C62.1 -44.5 74.6 -29.9 87.3 -8C99.9 13.9 112.7 43.2 106.2 67.8C99.7 92.3 73.9 112.2 49.3 110.2C24.7 108.2 1.3 84.3 -19.2 69.6C-39.8 54.8 -57.7 49.2 -67.8 36.7C-77.9 24.2 -80.3 4.8 -80.7 -17.9C-81.1 -40.7 -79.5 -66.8 -65.8 -85.8C-52 -104.9 -26 -116.9 -4.7 -111.2C16.5 -105.6 33 -82.3 47.6 -63.4Z" stroke="#2374E1" fill="none" stroke-width="20"></path></g><g transform="translate(48 580)"><path d="M71 -79.3C92.1 -66.9 109.3 -44.6 105.5 -24.7C101.8 -4.8 77.1 12.7 63 35.6C48.8 58.4 45.3 86.6 28.6 103.6C11.8 120.6 -18.2 126.4 -36.7 114C-55.3 101.6 -62.5 70.9 -75.9 45.1C-89.3 19.3 -108.8 -1.7 -109.7 -23.4C-110.7 -45.1 -93.2 -67.6 -71.8 -80C-50.4 -92.4 -25.2 -94.7 -0.1 -94.5C25 -94.4 49.9 -91.8 71 -79.3Z" stroke="#2374E1" fill="none" stroke-width="20"></path></g><g transform="translate(5 45)"><path d="M53.4 -70.9C63.5 -55.3 61.9 -32.9 59.2 -15.3C56.5 2.3 52.8 15.3 48 31.4C43.1 47.5 37.2 66.7 22.6 79.6C8.1 92.5 -15.2 99 -28.4 89.3C-41.7 79.6 -45 53.7 -60 32.4C-75 11 -101.7 -5.8 -108.3 -27.9C-114.9 -50 -101.4 -77.4 -80 -91C-58.6 -104.7 -29.3 -104.7 -3.8 -100.1C21.7 -95.6 43.4 -86.6 53.4 -70.9Z" stroke="#2374E1" fill="none" stroke-width="20"></path></g></g></svg>