<svg
        width="60"
        height="60"
        viewBox="0 0 343 368"
        fill="none"
        xmlns="http://www.w3.org/2000/svg"
>
    <path d="M14.4546 238.282C12.2482 234.606 11.0822 230.395 11.0822 226.108V169.816C11.0822 166.829 8.66098 164.408 5.67442 164.408C2.68786 164.408 0.266602 166.829 0.266602 169.816V226.108C0.266602 232.356 1.96538 238.49 5.17979 243.847L24.5953 276.207C24.9515 276.8 25.139 277.479 25.139 278.17V362.591C25.139 365.578 27.5602 367.999 30.5468 367.999C33.5333 367.999 35.9546 365.578 35.9546 362.591V278.171C35.9546 275.519 35.2336 272.915 33.8686 270.642L14.4546 238.282Z"
          fill="#0F2137"/>
    <path d="M154.145 336.066C151.159 336.066 148.737 338.487 148.737 341.474V362.592C148.737 365.579 151.159 368 154.145 368C157.132 368 159.553 365.579 159.553 362.592V341.474C159.553 338.486 157.132 336.066 154.145 336.066Z"
          fill="#0F2137"/>
    <path d="M318.583 93.5892C317.192 93.5892 315.829 93.7154 314.503 93.9454V44.9765C314.503 32.5017 304.354 22.3523 291.879 22.3523C287.554 22.3523 283.509 23.5738 280.069 25.6879V22.6249C280.069 10.1494 269.921 0 257.445 0C244.97 0 234.82 10.1494 234.82 22.6242V29.2924C231.381 27.179 227.337 25.9575 223.012 25.9575C211.187 25.9575 201.457 35.0787 200.475 46.6544C197.016 44.5071 192.941 43.2626 188.578 43.2626C181.69 43.2626 175.515 46.3609 171.361 51.233C167.209 46.3609 161.034 43.2626 154.145 43.2626C149.783 43.2626 145.707 44.5071 142.249 46.6544C141.267 35.0787 131.537 25.9575 119.712 25.9575C115.387 25.9575 111.343 27.179 107.903 29.2931V22.6249C107.903 10.1494 97.7537 0 85.279 0C72.8042 0 62.6548 10.1494 62.6548 22.6242V25.6871C59.2147 23.5738 55.1704 22.3523 50.8456 22.3523C38.3701 22.3523 28.2214 32.5017 28.2214 44.9765V93.9447C26.8947 93.7154 25.5327 93.5885 24.1411 93.5885C10.977 93.5885 0.267334 104.298 0.267334 117.462V146.768C0.267334 149.755 2.6886 152.176 5.67515 152.176C8.66171 152.176 11.083 149.755 11.083 146.768V117.462C11.083 110.262 16.9414 104.404 24.1418 104.404C31.3421 104.404 37.1999 110.263 37.1999 117.462V180.644C37.1999 183.079 38.828 185.214 41.1764 185.859L50.8167 188.505C66.3141 192.759 78.1623 205.729 81.0018 221.547C81.4712 224.164 83.7497 226 86.318 226C86.6353 226 86.9569 225.972 87.2792 225.914C90.2188 225.386 92.1743 222.575 91.6465 219.635C88.0752 199.74 73.1727 183.426 53.6793 178.074L48.0155 176.52V117.461C48.0155 109.927 44.5047 103.202 39.0371 98.824V44.9765C39.0364 38.4655 44.3339 33.168 50.8456 33.168C57.3573 33.168 62.6541 38.4655 62.6541 44.9765V127.771C62.6541 130.758 65.0754 133.179 68.0619 133.179C71.0485 133.179 73.4697 130.758 73.4697 127.771V22.6242C73.4697 16.1124 78.7673 10.8156 85.2783 10.8156C91.7893 10.8156 97.0868 16.1131 97.0868 22.6242C97.0868 22.6242 97.0962 108.094 97.1142 108.273C83.0257 126.273 83.767 152.025 99.6833 169.244L159.953 234.446C161.631 236.26 163.692 237.648 165.953 238.538V257.396C165.953 262.999 164.072 268.531 160.655 272.973L151.753 284.547C149.808 287.077 148.737 290.228 148.737 293.419V318.427C148.737 321.413 151.158 323.835 154.144 323.835C157.131 323.835 159.552 321.413 159.552 318.427V293.419C159.552 292.599 159.828 291.79 160.327 291.14L169.229 279.567C169.996 278.568 170.704 277.527 171.361 276.457C172.018 277.527 172.725 278.569 173.493 279.567L182.395 291.14C182.894 291.791 183.17 292.6 183.17 293.419V362.592C183.17 365.579 185.59 368 188.578 368C191.565 368 193.986 365.579 193.986 362.592V293.419C193.986 290.228 192.914 287.077 190.968 284.547L182.066 272.973C178.65 268.531 176.768 262.999 176.768 257.396V238.92C179.489 238.065 181.972 236.504 183.925 234.362L196.828 220.205C198.84 217.997 198.681 214.577 196.474 212.566C194.267 210.554 190.846 210.712 188.834 212.92L175.931 227.077C174.89 228.219 173.465 228.852 171.92 228.858C171.816 228.858 171.713 228.848 171.609 228.843C171.526 228.839 171.444 228.831 171.361 228.831C171.358 228.831 171.355 228.832 171.352 228.832C170.04 228.702 168.813 228.1 167.895 227.106L107.625 161.904C94.3295 147.52 94.7636 125.404 108.614 111.553C122.751 97.4172 145.777 97.3927 159.942 111.501L167.546 119.074C169.66 121.179 173.077 121.176 175.187 119.067L182.64 111.613C196.806 97.4482 219.855 97.4482 234.02 111.613L234.159 111.752C247.912 125.505 248.422 147.539 235.321 161.915L204.375 195.869C202.363 198.077 202.522 201.497 204.729 203.509C206.936 205.52 210.357 205.362 212.369 203.155L243.314 169.201C258.999 151.991 259.639 126.331 245.635 108.445V22.6242C245.635 16.1124 250.932 10.8156 257.444 10.8156C263.955 10.8156 269.252 16.1131 269.252 22.6242V127.771C269.252 130.758 271.673 133.179 274.66 133.179C277.647 133.179 280.068 130.758 280.068 127.771V44.9765C280.068 38.4647 285.365 33.168 291.877 33.168C298.388 33.168 303.686 38.4655 303.686 44.9765V98.8254C298.218 103.204 294.707 109.929 294.707 117.462V176.521L289.043 178.076C269.551 183.427 254.648 199.74 251.077 219.637C250.549 222.577 252.504 225.387 255.444 225.915C258.38 226.443 261.195 224.488 261.722 221.548C264.562 205.73 276.409 192.761 291.907 188.506L301.547 185.86C303.896 185.215 305.524 183.08 305.524 180.645V117.463C305.524 110.263 311.382 104.405 318.582 104.405C325.783 104.405 331.641 110.263 331.641 117.463V226.108C331.641 230.396 330.475 234.606 328.267 238.282L308.853 270.641C307.488 272.915 306.767 275.518 306.767 278.17V362.591C306.767 365.578 309.187 367.999 312.175 367.999C315.162 367.999 317.582 365.578 317.582 362.591V278.171C317.582 277.48 317.771 276.8 318.127 276.207L337.542 243.848C340.757 238.49 342.455 232.356 342.455 226.109V117.463C342.457 104.299 331.747 93.5892 318.583 93.5892V93.5892ZM107.903 98.1887V48.5817C107.903 42.07 113.201 36.7732 119.712 36.7732C126.223 36.7732 131.52 42.0707 131.52 48.5817V90.2147C123.228 90.7014 115.045 93.3599 107.903 98.1887V98.1887ZM142.337 90.8204V65.8867C142.337 59.375 147.634 54.0782 154.145 54.0782C160.656 54.0782 165.954 59.3757 165.954 65.8867V102.301C159.122 96.1078 150.895 92.287 142.337 90.8204V90.8204ZM176.77 102.276V65.8867C176.77 59.375 182.067 54.0782 188.578 54.0782C195.089 54.0782 200.387 59.3757 200.387 65.8867V90.8586C191.836 92.3093 183.61 96.1063 176.77 102.276ZM211.203 90.2746V48.5817C211.203 42.07 216.5 36.7732 223.012 36.7732C229.523 36.7732 234.82 42.0707 234.82 48.5817V98.3077C227.681 93.4536 219.498 90.7757 211.203 90.2746Z"
          fill="#0F2137"/>
</svg>
