<svg
        width="60"
        height="60"
        viewBox="0 0 421 371"
        fill="none"
        xmlns="http://www.w3.org/2000/svg"
>
    <path d="M252.838 211.706C249.57 210.723 246.127 212.574 245.144 215.841L234.758 250.364C234.585 250.941 234.497 251.54 234.497 252.143V363.54C234.497 366.951 237.262 369.716 240.673 369.716C244.085 369.716 246.85 366.951 246.85 363.54V253.052L256.973 219.401C257.957 216.134 256.105 212.689 252.838 211.706V211.706Z"
          fill="#0F2137"/>
    <path d="M270.486 145.468C267.114 144.956 263.965 147.279 263.455 150.651C262.582 156.42 261.292 162.162 259.621 167.716L252.727 190.634C251.745 193.902 253.596 197.346 256.862 198.329C257.456 198.508 258.055 198.593 258.644 198.593C261.3 198.593 263.753 196.867 264.557 194.194L271.451 171.276C273.29 165.163 274.709 158.846 275.669 152.499C276.18 149.126 273.859 145.977 270.486 145.468V145.468Z"
          fill="#0F2137"/>
    <path d="M112.418 297.524L58.6182 297.313C52.3838 297.288 47.0915 292.811 46.0349 286.667L36.8801 233.453C36.3703 230.489 33.8 228.323 30.7923 228.323H12.3708C12.6821 213.108 17.0742 198.28 25.1213 185.334L31.6876 174.77C33.2935 172.186 34.0182 169.217 33.7835 166.184L31.3194 134.295C28.8627 102.499 39.4406 72.0985 61.1053 48.6961C82.7701 25.2928 112.264 12.4039 144.155 12.4039C145.59 12.4039 147.082 12.4311 148.59 12.4847C151.99 12.6082 154.861 9.93983 154.982 6.53109C155.103 3.12235 152.437 0.260456 149.028 0.139391C147.375 0.0809182 145.735 0.0512695 144.155 0.0512695C109.296 0.0512695 75.7212 14.7231 52.0395 40.3047C28.3587 65.8864 16.3173 100.492 19.003 135.247L21.4671 167.137C21.4976 167.531 21.4028 167.916 21.1953 168.251L14.6298 178.814C5.05917 194.211 0 211.934 0 230.064C0 235.917 4.76104 240.678 10.6133 240.678H25.5882L33.8601 288.762C35.9363 300.827 46.3281 309.618 58.5704 309.667L112.371 309.878C117.518 309.898 121.706 314.102 121.706 319.249V364.221C121.706 367.632 124.471 370.398 127.883 370.398C131.294 370.398 134.059 367.632 134.059 364.221V319.249C134.059 307.316 124.351 297.57 112.418 297.524V297.524Z"
          fill="#0F2137"/>
    <path d="M406.369 178.813L399.804 168.25C399.595 167.915 399.501 167.529 399.531 167.136L401.995 135.247C404.681 100.491 392.639 65.8864 368.959 40.3047C345.278 14.7231 311.703 0.0512695 276.843 0.0512695C252.962 0.0512695 230.212 6.23378 210.368 17.7061C200.376 11.9329 189.633 7.44937 178.393 4.47876C175.095 3.60496 171.714 5.57493 170.843 8.87249C169.971 12.1701 171.938 15.5508 175.237 16.4221C183.358 18.5683 191.193 21.5892 198.628 25.3759C187.953 33.1825 178.347 42.6634 170.164 53.672C144.829 87.7488 137.315 130.614 149.547 171.276L154.816 188.792C155.799 192.058 159.245 193.912 162.511 192.927C165.777 191.945 167.629 188.5 166.646 185.233L161.377 167.716C150.282 130.833 157.098 91.9514 180.078 61.0421C188.635 49.5312 198.899 39.8518 210.399 32.2321C226.427 42.8281 239.962 57.2463 249.51 74.3329C250.642 76.3572 252.743 77.4978 254.908 77.4978C255.927 77.4978 256.962 77.2442 257.915 76.7121C260.893 75.0477 261.958 71.2848 260.294 68.3068C250.779 51.2788 237.661 36.658 222.165 25.3759C238.79 16.9261 257.401 12.4039 276.843 12.4039C308.734 12.4039 338.229 25.2928 359.894 48.6961C381.558 72.0993 392.136 102.499 389.679 134.295L387.215 166.184C386.981 169.218 387.706 172.187 389.312 174.771L395.878 185.334C403.925 198.28 408.317 213.108 408.628 228.323H390.207C387.2 228.323 384.629 230.489 384.119 233.453L374.964 286.667C373.907 292.811 368.614 297.288 362.38 297.313L308.58 297.524C296.647 297.57 286.94 307.316 286.94 319.248V364.22C286.94 367.631 289.705 370.397 293.116 370.397C296.527 370.397 299.293 367.631 299.293 364.22V319.248C299.293 314.101 303.481 309.897 308.628 309.877L362.428 309.666C374.671 309.618 385.063 300.827 387.139 288.762L395.411 240.678H410.386C416.238 240.678 420.999 235.917 420.999 230.064C421 211.934 415.941 194.211 406.369 178.813V178.813Z"
          fill="#0F2137"/>
    <path d="M180.326 261.09C176.914 261.09 174.149 263.855 174.149 267.267V363.54C174.149 366.951 176.914 369.717 180.326 369.717C183.737 369.717 186.502 366.951 186.502 363.54V267.267C186.502 263.855 183.737 261.09 180.326 261.09V261.09Z"
          fill="#0F2137"/>
    <path d="M303.416 152.729C304.821 153.384 306.304 153.706 307.774 153.706C310.121 153.706 312.431 152.886 314.327 151.298L352.512 119.299C354.841 117.348 356.177 114.486 356.177 111.447C356.177 108.409 354.841 105.547 352.513 103.596L314.328 71.5971C311.243 69.0119 307.063 68.4634 303.417 70.1657C299.77 71.8672 297.505 75.4242 297.505 79.4482V89.8498H246.042C240.328 89.8498 235.679 94.4988 235.679 100.213V122.68C235.679 128.394 240.328 133.043 246.042 133.043H297.505V143.445C297.504 147.471 299.77 151.028 303.416 152.729V152.729ZM248.031 120.691V102.204H303.681C307.092 102.204 309.858 99.4386 309.858 96.0274V83.9695L342.647 111.447L309.858 138.925V126.867C309.858 123.456 307.092 120.691 303.681 120.691H248.031Z"
          fill="#0F2137"/>
    <path d="M196.011 205.542H144.548V195.14C144.548 191.116 142.283 187.559 138.636 185.858C134.99 184.156 130.809 184.704 127.724 187.289L89.5398 219.288C87.2116 221.239 85.8757 224.1 85.8757 227.138C85.8757 230.176 87.2107 233.038 89.5398 234.99L127.725 266.989C129.622 268.579 131.932 269.397 134.278 269.397C135.748 269.397 137.233 269.075 138.638 268.42C142.283 266.718 144.548 263.161 144.548 259.137V248.736H196.011C201.726 248.736 206.375 244.087 206.375 238.372V215.905C206.375 210.191 201.726 205.542 196.011 205.542V205.542ZM194.022 236.383H138.372C134.96 236.383 132.195 239.148 132.195 242.56V254.617L99.4045 227.139L132.195 199.661V211.719C132.195 215.13 134.96 217.895 138.372 217.895H194.022V236.383Z"
          fill="#0F2137"/>
</svg>
