<svg width="60" height="60" viewBox="0 0 428 365" fill="none" xmlns="http://www.w3.org/2000/svg">
    <path fill-rule="evenodd" clip-rule="evenodd"
          d="M299.629 42.4938C278.532 27.5971 249.064 25.5054 215.877 52.096L210.16 42.2749C246.24 13.3663 279.986 14.7433 304.856 32.304C329.38 49.6207 344.645 82.2796 344.795 114.546L334.659 114.611C334.528 86.4214 321.072 57.6344 299.629 42.4938Z"
          fill="#0F2137"/>
    <path fill-rule="evenodd" clip-rule="evenodd"
          d="M373.705 89.1561C364.759 82.4994 350.977 77.9094 330.435 77.9094V66.0166C352.13 66.0166 368.019 70.8417 379.134 79.1128C390.387 87.4858 396.385 99.1301 398.546 111.666C400.677 124.028 399.045 136.987 395.55 148.397C392.056 159.803 386.561 170.121 380.479 177.257L373.311 168.847C378.211 163.098 382.958 154.339 386.011 144.375C389.062 134.415 390.281 123.712 388.611 114.023C386.97 104.508 382.515 95.7111 373.705 89.1561Z"
          fill="#0F2137"/>
    <path fill-rule="evenodd" clip-rule="evenodd"
          d="M416.954 206.387C416.827 190.835 409.257 170.934 387.897 148.765L394.614 139.857C417.179 163.277 426.926 186.115 427.09 206.273C427.255 226.582 417.68 242.704 404.366 252.322C378.024 271.351 335.188 266.027 318.153 217.95L327.513 213.385C341.732 253.513 377.034 258.1 399.052 242.194C409.918 234.345 417.079 221.787 416.954 206.387Z"
          fill="#0F2137"/>
    <path fill-rule="evenodd" clip-rule="evenodd"
          d="M377.047 327.394C386.894 312.752 392.692 290.234 389.559 256.954L399.634 255.649C402.971 291.09 396.942 317.011 385.005 334.761C373.085 352.487 355.84 361.218 338.169 363.62C320.538 366.016 302.136 362.182 287.221 354.341C272.495 346.599 260.146 334.365 256.306 319.067L266.029 315.707C268.658 326.18 277.84 336.376 291.366 343.488C304.705 350.5 321.277 353.944 337.003 351.806C352.689 349.674 367.184 342.061 377.047 327.394Z"
          fill="#0F2137"/>
    <path fill-rule="evenodd" clip-rule="evenodd"
          d="M196.514 294.667C188.761 288.329 182.084 280.816 178.858 272.686L188.048 267.667C190.158 272.985 195.113 279.027 202.309 284.909C209.385 290.694 218.128 295.917 227.091 299.824C236.074 303.739 245.043 306.23 252.563 306.746C260.347 307.281 265.394 305.63 267.865 302.951L274.744 311.687C269.141 317.76 260.504 319.205 251.97 318.618C243.171 318.014 233.188 315.168 223.561 310.972C213.914 306.767 204.388 301.104 196.514 294.667Z"
          fill="#0F2137"/>
    <path fill-rule="evenodd" clip-rule="evenodd"
          d="M131.407 319.207C150.508 327.187 175.049 320.542 199.053 288.083L206.71 295.877C180.875 330.81 152.198 340.518 128.007 330.411C104.156 320.446 86.5916 291.961 81.3118 255.31L91.3067 253.328C96.1636 287.043 111.966 311.085 131.407 319.207Z"
          fill="#0F2137"/>
    <path fill-rule="evenodd" clip-rule="evenodd"
          d="M68.5593 265.151C74.2792 266.584 80.8354 265.803 88.0419 261.033L93.0223 271.391C83.7571 277.523 74.686 278.848 66.4418 276.781C58.2966 274.74 51.3093 269.485 45.874 263.108C40.4449 256.738 36.3666 249.025 34.0903 241.607C31.8964 234.457 31.0353 226.401 33.573 220.073L42.7451 225.137C41.9043 227.233 41.7826 231.565 43.6278 237.578C45.3906 243.323 48.6509 249.547 53.0417 254.698C57.4264 259.842 62.7403 263.693 68.5593 265.151Z"
          fill="#0F2137"/>
    <path fill-rule="evenodd" clip-rule="evenodd"
          d="M10.2675 158.788C8.62199 182.706 22.8824 210.812 62.0398 220.758L59.8949 232.381C17.1141 221.515 -1.99213 189.166 0.163616 157.831C2.29857 126.799 25.2403 99.7127 60.9674 99.7127V111.606C29.9612 111.606 11.9337 134.568 10.2675 158.788Z"
          fill="#0F2137"/>
    <path fill-rule="evenodd" clip-rule="evenodd"
          d="M48.4582 78.6982C43.6752 86.0513 40.7773 96.9931 42.3494 112.903L32.2801 114.272C30.4735 95.9899 33.6999 81.7834 40.4 71.4831C47.0584 61.2469 56.6949 55.5643 66.6311 53.2464C76.5439 50.934 87.0503 51.8847 95.9968 55.2422C104.812 58.5505 112.887 64.5104 116.926 73.0389L108.065 78.8146C105.768 73.9638 100.433 69.3936 92.9085 66.5696C85.5149 63.7949 76.751 63.0113 68.6079 64.9109C60.4881 66.8051 53.2828 71.2811 48.4582 78.6982Z"
          fill="#0F2137"/>
    <path fill-rule="evenodd" clip-rule="evenodd"
          d="M113.111 25.8529C105.019 31.9976 96.6908 42.8211 89.1651 60.7187L80.0745 55.457C88.1762 36.1895 97.5868 23.4751 107.604 15.8688C117.677 8.21922 128.075 5.9611 137.702 7.07661C147.249 8.18291 155.909 12.5832 162.776 18.0446C169.583 23.4577 174.999 30.2105 177.806 36.4984L168.826 42.0167C166.988 37.8983 162.9 32.5105 157.089 27.8891C151.338 23.3159 144.264 19.7877 136.706 18.9118C129.227 18.0452 121.147 19.7514 113.111 25.8529Z"
          fill="#0F2137"/>
    <path fill-rule="evenodd" clip-rule="evenodd"
          d="M179.568 321.104C190.697 348.088 233.509 368.624 274.464 337.532L279.971 347.517C234.764 381.836 184.656 360.746 170.443 326.284L179.568 321.104Z"
          fill="#0F2137"/>
    <path fill-rule="evenodd" clip-rule="evenodd"
          d="M197.816 12.9311C188.384 11.3067 177.363 15.5531 163.099 29.8973L156.502 20.8676C171.804 5.47982 185.702 -1.17552 199.288 1.16434C212.654 3.46618 224.237 14.261 235.432 29.4165L227.772 37.2054C217.004 22.6289 207.469 14.5935 197.816 12.9311Z"
          fill="#0F2137"/>
    <path fill-rule="evenodd" clip-rule="evenodd"
          d="M255.951 140.898C247.046 135.385 238.645 126.307 236.011 115.179L245.778 111.996C247.367 118.708 253.044 125.652 260.682 130.38C268.337 135.119 276.363 136.644 281.586 134.683L284.675 146.01C275.819 149.335 264.838 146.4 255.951 140.898Z"
          fill="#0F2137"/>
    <path fill-rule="evenodd" clip-rule="evenodd"
          d="M155.595 132.595C162.561 129.326 168.584 122.293 169.988 110.765L180.023 112.446C178.048 128.668 169.288 138.978 159.36 143.638C149.735 148.155 138.323 147.636 130.668 141.221L136.56 131.543C140.731 135.039 148.325 136.007 155.595 132.595Z"
          fill="#0F2137"/>
    <path fill-rule="evenodd" clip-rule="evenodd"
          d="M223.215 191.89C206.621 187.989 184.534 192.35 156.237 219.294L149.849 210.06C179.838 181.504 204.914 175.459 225.207 180.229C245.212 184.932 259.418 199.914 268.188 210.541L260.905 218.813C252.499 208.627 240.096 195.859 223.215 191.89Z"
          fill="#0F2137"/>
</svg>
