<svg width="60" height="60" viewBox="0 0 368 368" fill="none" xmlns="http://www.w3.org/2000/svg">
    <g clip-path="url(#clip0)">
        <path d="M308.142 45.4552C278.829 16.1431 239.856 0 198.404 0C156.951 0 117.977 16.1431 88.665 45.4552C59.6555 74.4654 43.5447 112.934 43.2155 153.909L14.9744 210.391C13.7123 212.915 14.6057 215.986 17.0272 217.438L43.2105 233.148V316.509C43.2105 319.492 45.6284 321.91 48.6119 321.91H100.823V362.599C100.823 365.582 103.241 368.001 106.225 368.001C109.208 368.001 111.626 365.582 111.626 362.599V316.509C111.626 313.526 109.208 311.107 106.225 311.107H54.0119V230.09C54.0119 228.193 53.0164 226.434 51.3892 225.458L26.8719 210.748L53.4412 157.609C53.8164 156.859 54.0119 156.033 54.0119 155.193C54.0119 75.5758 118.786 10.8021 198.403 10.8021C278.02 10.8021 342.794 75.5758 342.794 155.193C342.794 199.933 322.551 241.417 287.256 269.012C285.947 270.035 285.181 271.605 285.181 273.267V362.599C285.181 365.581 287.599 368 290.583 368C293.566 368 295.984 365.581 295.984 362.599V275.873C332.635 246.227 353.597 202.396 353.597 155.194C353.597 113.74 337.455 74.7673 308.142 45.4552Z"
              fill="#0F2137"/>
        <path d="M317.448 98.9446L295.891 77.3878C293.781 75.2783 290.362 75.2783 288.253 77.3878C286.143 79.4973 286.143 82.9171 288.253 85.026L305.99 102.763L296.739 112.014C295.733 110.225 294.481 108.568 293.004 107.092C286.332 100.419 275.902 98.5651 267.346 102.574C264.963 103.691 262.784 105.231 260.924 107.092C254.251 113.764 252.397 124.193 256.406 132.75C257.522 135.133 259.062 137.311 260.923 139.172C262.399 140.649 264.057 141.901 265.845 142.907L256.594 152.158L241.004 136.568C237.765 133.331 232.044 135.525 231.792 140.089C231.448 146.307 226.154 151.31 219.93 151.31C216.756 151.31 213.772 150.074 211.528 147.83C206.948 143.249 206.948 135.606 211.528 131.025C213.598 128.955 216.347 127.727 219.269 127.566C223.83 127.313 226.028 121.592 222.791 118.354L207.201 102.763L256.595 53.3686L269.11 65.8835C271.22 67.993 274.639 67.993 276.749 65.8835C278.859 63.774 278.859 60.3541 276.749 58.2453L260.415 41.9117C258.304 39.8022 254.885 39.8022 252.776 41.9117L195.743 98.9453C193.634 101.055 193.634 104.475 195.743 106.583L208.814 119.654C207.025 120.659 205.368 121.912 203.891 123.389C197.218 130.061 195.364 140.49 199.373 149.046C200.49 151.43 202.03 153.608 203.891 155.469C208.175 159.754 213.872 162.113 219.932 162.113C225.992 162.113 231.688 159.754 235.973 155.469C237.449 153.993 238.701 152.335 239.707 150.547L252.776 163.618C254.857 165.698 258.333 165.698 260.415 163.618L279.825 144.208C283.063 140.97 280.866 135.249 276.304 134.996C273.382 134.835 270.633 133.606 268.563 131.536C263.984 126.956 263.984 119.312 268.564 114.732C273.144 110.152 280.788 110.153 285.368 114.732C287.438 116.801 288.666 119.55 288.828 122.472C289.08 127.033 294.801 129.231 298.04 125.994L317.45 106.584C319.558 104.473 319.558 101.053 317.448 98.9446Z"
              fill="#0F2137"/>
        <path d="M256.016 195.882H237.532C238.087 193.906 238.372 191.849 238.372 189.761C238.372 177.252 228.195 167.075 215.687 167.075C203.178 167.075 193.002 177.252 193.002 189.761C193.002 191.849 193.288 193.906 193.841 195.882H180.758V173.834C180.758 169.268 175.169 166.754 171.755 169.81C169.575 171.762 166.761 172.837 163.835 172.837C157.283 172.837 151.953 167.506 151.953 160.955C151.953 154.403 157.284 149.072 163.835 149.072C166.761 149.072 169.575 150.147 171.755 152.1C175.169 155.155 180.758 152.643 180.758 148.076V120.626C180.758 117.643 178.34 115.224 175.357 115.224H94.701C91.7174 115.224 89.2996 117.643 89.2996 120.626V281.94C89.2996 284.923 91.7174 287.342 94.701 287.342H256.016C258.999 287.342 261.417 284.923 261.417 281.94V201.284C261.417 198.301 258.999 195.882 256.016 195.882ZM100.102 126.027H169.958V139.11C167.983 138.557 165.924 138.27 163.836 138.27C151.328 138.27 141.151 148.447 141.151 160.955C141.151 173.464 151.328 183.64 163.836 183.64C165.924 183.64 167.982 183.354 169.958 182.8V195.884H147.909C143.344 195.884 140.828 201.473 143.885 204.887C145.837 207.067 146.912 209.881 146.912 212.807C146.912 219.359 141.582 224.689 135.03 224.689C128.478 224.689 123.148 219.359 123.148 212.807C123.148 209.881 124.223 207.067 126.175 204.887C129.232 201.473 126.718 195.884 122.151 195.884H100.102V126.027ZM173.154 249.561C171.21 250.43 169.957 252.362 169.957 254.491V276.54H100.102V206.684H113.184C112.631 208.66 112.345 210.718 112.345 212.806C112.345 225.314 122.522 235.491 135.03 235.491C147.538 235.491 157.715 225.314 157.715 212.806C157.715 210.718 157.429 208.661 156.876 206.684H169.958V228.733C169.958 233.299 175.548 235.813 178.962 232.756C181.142 230.805 183.956 229.729 186.882 229.729C193.434 229.729 198.764 235.06 198.764 241.611C198.764 248.163 193.434 253.494 186.882 253.494C183.956 253.494 181.142 252.418 178.962 250.466C177.374 249.047 175.097 248.692 173.154 249.561ZM250.615 276.54H180.76V263.456C182.735 264.01 184.793 264.296 186.881 264.296C199.39 264.296 209.567 254.12 209.567 241.611C209.567 229.103 199.39 218.926 186.881 218.926C184.793 218.926 182.736 219.213 180.76 219.766V206.683H202.808C207.374 206.683 209.889 201.094 206.832 197.679C204.88 195.498 203.805 192.686 203.805 189.759C203.805 183.207 209.136 177.877 215.687 177.877C222.239 177.877 227.57 183.208 227.57 189.759C227.57 192.686 226.495 195.498 224.542 197.679C221.487 201.093 224 206.683 228.567 206.683H250.615V276.54V276.54Z"
              fill="#0F2137"/>
    </g>
    <defs>
        <clipPath id="clip0">
            <rect width="368" height="368" fill="white"/>
        </clipPath>
    </defs>
</svg>
