<svg
        xmlns="http://www.w3.org/2000/svg"
        width="60"
        height="60"
        viewBox="0 0 412 370"
        fill="#none"
        stroke="#0F2137"
>
    <path
            fill-rule="evenodd"
            clip-rule="evenodd"
            d="M118.056 0L118.396 0.0269182C137.891 1.57144 151.021 4.18102 164.709 11.5917C177.398 18.4613 190.362 29.3574 209.424 46.6904C213.799 40.3367 217.953 34.4822 223.68 29.0656C230.702 22.4254 239.909 16.5738 254.635 10.5077C269.76 4.27708 295.342 -0.191517 321.152 6.3761C346.633 12.86 372.279 30.1122 388.045 66.6219C393.247 67.6712 397.392 69.6075 400.532 72.3644C404.217 75.6002 406.217 79.7055 407.023 83.9663C407.896 88.5877 407.367 93.3318 406.243 97.5279L406.802 97.3893C407.105 98.8216 407.409 100.23 407.709 101.621C410.15 112.945 412.338 123.09 411.957 135.188C411.526 148.847 407.867 164.691 398.468 187.925L398.425 187.904C396.982 201.536 392.023 211.993 386.953 219.267C388.522 220.45 389.551 222.267 389.964 224.409C390.457 226.967 390.088 229.928 389.282 233.071C389.001 234.165 388.756 235.136 388.543 235.997L389.445 236.17C389.445 244.788 385.024 258.207 373.31 272.776C361.623 287.311 342.495 303.248 312.451 317.215C299.226 332.778 264.554 356.621 216.914 369.77L216.488 369.887L216.049 369.913C203.43 370.641 184.426 366.843 163.264 357.542C142.259 348.31 118.836 333.532 97.0124 311.894C78.9674 306.03 59.5071 295.33 44.2847 276.759C36.7717 268.097 29.1252 257.221 25.044 247.062C23.0069 241.991 21.6815 236.67 22.028 231.684C22.3237 227.428 23.8433 223.534 26.8414 220.517C22.4097 211.304 19.8874 203.661 18.6242 197.516C17.7614 193.32 17.4727 189.756 17.5971 186.83C17.6643 185.251 17.8565 183.753 18.1954 182.399C12.9496 174.738 8.63128 166.707 5.92297 158.591C2.59507 148.618 1.63068 138.282 4.61818 128.394C3.53119 126.541 2.47742 124.617 1.66979 122.729C0.588013 120.201 -0.36329 117.048 0.137052 113.762C0.689489 110.133 2.82409 107.393 5.90673 105.512C6.8112 104.96 7.81727 104.467 8.92452 104.028C8.81785 103.872 8.71278 103.716 8.60938 103.558C6.43028 100.231 4.74263 95.9668 4.58756 91.2654C4.42848 86.4426 5.90085 81.4702 9.57879 77.0456C12.8417 73.1203 17.6986 69.7863 24.3492 67.1806C32.1311 44.4746 58.4905 5.11874 117.717 0.0291828L118.056 0ZM26.3706 76.6886C21.2652 78.8271 18.1041 81.2486 16.2188 83.5166C14.0816 86.0876 13.4394 88.6198 13.5153 90.9201C13.5952 93.3418 14.492 95.8186 15.8959 97.9617C17.325 100.143 19.0277 101.597 20.2636 102.191L34.627 109.104L32.2739 109.451L45.9826 117.64L41.667 126.11L17.4774 111.659C13.8332 112.31 11.5971 113.143 10.2926 113.939C9.02537 114.712 8.96533 115.219 8.95295 115.324C8.9524 115.328 8.95148 115.335 8.95148 115.335C8.88849 115.749 8.95182 116.738 9.77578 118.664C10.572 120.525 11.7948 122.632 13.3093 125.131C13.5794 125.577 13.7791 125.905 13.9819 126.238C14.1828 126.568 14.3868 126.903 14.6654 127.362L14.5432 127.449L39.489 143.133L35.0032 151.498L11.9677 137.015C11.6155 140.188 11.7181 143.473 12.2394 146.856L12.5438 146.898C12.5793 146.59 12.5525 146.412 12.5468 146.381C12.5538 146.413 12.6005 146.598 12.7732 146.954C13.1069 147.641 13.8087 148.738 15.1583 150.167C17.8607 153.028 22.8562 156.902 31.5885 161.236L27.8663 170.029C24.1323 168.176 20.9358 166.352 18.2093 164.582C21.3626 170.897 25.5284 177.258 30.3835 183.472C44.8855 202.033 64.8909 218.472 79.8441 227.559L84.0639 230.123C121.293 234.236 162.008 223.947 196.226 204.421C152.164 174.205 130.4 123.992 125.847 78.6404C123.768 57.9223 119.862 44.8524 115.091 38.2245C112.807 35.0519 110.53 33.6335 108.335 33.2303C106.084 32.8169 103.212 33.3409 99.5635 35.5357C98.5032 36.1735 97.1971 37.7705 96.0176 40.9495C94.8717 44.038 94.0569 48.0607 93.6131 52.632C92.7243 61.7879 93.4031 72.2787 95.1541 80.0205L95.2823 80.5873V81.1709C95.2823 85.6136 94.2947 89.5211 92.2007 92.6785C90.1038 95.8402 87.1698 97.8392 83.9462 98.9761C77.7073 101.177 69.8861 100.343 62.4343 98.2403C54.8364 96.0959 46.9432 92.4366 40.1971 88.184C34.8037 84.7841 29.8455 80.8182 26.3706 76.6886ZM205.182 199.003C216.875 191.514 227.641 182.922 237.034 173.456C275.454 125.806 282.835 75.2369 287.51 37.7829L287.651 36.6503L288.246 35.706C295.741 23.8038 304.025 19.0526 312.117 21.1324C319.554 23.0441 324.618 30.3026 327.062 36.5417L327.611 37.9427L327.32 39.4315C323.29 60.0605 324.573 73.1222 327.315 80.9581C330.059 88.7989 334.154 91.2659 336.079 91.7002L336.141 91.7142L336.202 91.7301C339.153 92.4909 342.795 92.222 347 90.9501C351.177 89.6868 355.633 87.5183 360.051 84.838C367.576 80.2733 374.645 74.4374 379.548 69.7922C365.033 36.8828 342.004 21.6185 319.109 15.7924C295.265 9.72515 271.507 13.907 257.811 19.5484C243.716 25.3544 235.537 30.6957 229.557 36.3508C224.196 41.4209 220.459 46.8506 215.677 53.7972C215.053 54.7039 214.411 55.6364 213.745 56.5974L210.906 60.6966L207.29 57.3908C186.077 37.9951 173.081 26.9388 160.714 20.2433C148.63 13.7009 136.923 11.2121 118.085 9.70118C63.5206 14.5289 39.836 50.2955 32.888 70.0728C35.4421 73.142 39.5494 76.5829 44.6918 79.8246C50.8094 83.6811 57.9533 86.9796 64.6875 88.8802C71.5679 90.822 77.3741 91.121 81.1794 89.7789C82.978 89.1445 84.1703 88.2036 84.9443 87.0365C85.6718 85.9396 86.2684 84.2826 86.3414 81.7082C84.4363 72.9119 83.7605 61.5947 84.7287 51.6209C85.2247 46.5107 86.1721 41.5374 87.7281 37.3436C89.2506 33.2404 91.5863 29.2689 95.2251 27.08C100.035 24.187 104.98 22.8031 109.829 23.6937C114.732 24.5943 118.836 27.6916 122.137 32.2782C128.537 41.1688 132.62 56.5917 134.728 77.5951C139.193 122.064 161.057 171.029 205.182 199.003ZM386.411 76.1314C381.097 81.2869 373.088 88.017 364.418 93.2767C359.61 96.1932 354.48 98.7312 349.404 100.266C344.376 101.787 339.119 102.409 334.192 101.155C328.616 99.8667 322.501 94.5004 318.961 84.3853C315.493 74.4742 314.394 59.8674 318.279 39.0068C316.285 34.6807 313.191 31.3503 310.053 30.5437C307.343 29.8469 302.529 30.6216 296.218 40.2355C291.486 77.9586 283.592 130.531 243.608 180.01L243.459 180.194L243.294 180.361C200.078 224.034 129.117 250.079 69.2909 237.542L69.3351 237.295C51.8057 238.176 40.5703 235.287 33.548 230.568L32.5059 231.265C32.187 230.706 31.8744 230.152 31.568 229.602C31.2104 230.432 31.009 231.362 30.9362 232.41C30.7442 235.172 31.4747 238.819 33.236 243.204C36.7436 251.935 43.6421 261.897 50.8385 270.186L50.8833 270.237L50.9266 270.29C65.0224 287.51 83.2991 297.489 100.525 302.932C117.442 308.277 133.071 309.157 142.146 308.364C171.845 305.771 195.349 301.57 211.822 296.73C224.032 293.142 231.81 289.361 235.527 286.047L236.195 285.452L237.019 285.169C272.467 273.023 304.467 252.733 330.674 232.248C358.428 210.553 379.545 188.751 391.262 176.412L394.525 172.975C395.783 169.475 396.875 166.193 397.818 163.1C394.517 164.983 390.312 167.27 385.019 169.999L381.178 161.266C389.011 157.227 394.32 154.225 397.754 152.132C399.266 151.21 400.394 150.477 401.203 149.92C402.334 144.321 402.885 139.401 403.028 134.858C403.032 134.732 403.036 134.607 403.039 134.481L379.849 150.384L375.07 142.212L402.555 123.363C402.032 118.631 401.144 113.945 400.074 108.83C389.323 117.751 382.16 122.809 377.497 125.468C375.097 126.836 373.06 127.745 371.382 128.088C370.585 128.25 369.382 128.392 368.122 127.976C366.572 127.463 365.035 126.082 364.621 123.841L364.001 120.483L395.737 100.08C397.718 95.9051 399.122 90.4098 398.271 85.9058C397.839 83.62 396.831 81.5688 394.905 79.8776C393.186 78.3678 390.518 76.9593 386.411 76.1314ZM369.675 118.59C369.675 118.59 369.691 118.587 369.72 118.583C369.689 118.59 369.675 118.59 369.675 118.59ZM388.67 192.51C377.729 203.69 362.443 218.544 343.764 233.807C344.04 233.786 344.325 233.761 344.619 233.73C350.044 233.16 357.999 230.718 368.706 224.226C370.024 223.185 371.548 222.097 373.139 221.124C377.719 217.044 385.629 207.511 388.67 192.51ZM378.125 229.194C377.408 229.802 376.735 230.323 376.127 230.749L376.055 230.8L375.981 230.847C375.08 231.426 374.194 231.981 373.321 232.513C361.734 239.576 352.504 242.62 345.481 243.358C340.655 243.865 336.577 243.298 333.548 241.919C307.49 262.013 275.761 281.906 240.499 294.121C236.803 297.182 231.363 300.025 224.484 302.633C229.215 304.675 235.647 306.751 243.911 308.326C259.299 311.259 280.725 312.388 308.606 308.475C337.854 294.929 355.889 279.711 366.572 266.424C373.647 257.625 377.424 249.778 379.194 243.853C378.718 243.066 378.578 242.344 378.54 242.144L378.539 242.138C378.38 241.314 378.447 240.58 378.466 240.377L378.467 240.359C378.523 239.745 378.656 239.006 378.81 238.253C379.136 236.66 379.73 234.16 380.674 230.482C380.968 229.335 381.129 228.434 381.203 227.744C380.333 228.03 379.28 228.525 378.125 229.194ZM296.724 319.594C274.221 321.691 256.174 320.485 242.362 317.853C227.825 315.082 217.715 310.678 212.097 306.658C195.07 311.447 171.705 315.487 142.864 318.006C136.192 318.588 126.688 318.357 115.859 316.521C132.98 331.052 150.568 341.523 166.623 348.58C186.781 357.439 204.234 360.793 215.142 360.276C252.462 349.906 280.964 332.953 296.724 319.594ZM37.8054 222.023C42.0038 225.023 49.6325 227.789 63.2808 227.782C51.2591 218.949 38.0562 207.165 27.0868 194.072C27.1636 194.505 27.2492 194.953 27.3442 195.415C28.6453 201.744 31.6644 210.56 37.8054 222.023Z"
            fill="#0F2137"/>
</svg>
