<svg width="60" height="60" viewBox="0 0 366 366" fill="none" xmlns="http://www.w3.org/2000/svg">
    <g clip-path="url(#clip0)">
        <path d="M306.467 45.2081C277.314 16.0554 238.553 0 197.326 0C156.098 0 117.336 16.0554 88.1833 45.2081C59.3315 74.0607 43.3082 112.32 42.9808 153.072L14.8932 209.248C13.6379 211.758 14.5265 214.812 16.9348 216.256L42.9758 231.881V314.789C42.9758 317.755 45.3806 320.161 48.3479 320.161H100.276V360.629C100.276 363.595 102.68 366.001 105.648 366.001C108.615 366.001 111.02 363.595 111.02 360.629V314.789C111.02 311.822 108.615 309.417 105.648 309.417H53.7185V228.839C53.7185 226.953 52.7284 225.204 51.11 224.233L26.726 209.602L53.1509 156.752C53.5241 156.006 53.7185 155.185 53.7185 154.35C53.7185 75.1651 118.14 10.7434 197.325 10.7434C276.51 10.7434 340.931 75.1651 340.931 154.35C340.931 198.847 320.798 240.105 285.695 267.55C284.393 268.568 283.632 270.129 283.632 271.782V360.628C283.632 363.595 286.036 366 289.004 366C291.971 366 294.376 363.595 294.376 360.628V274.373C330.827 244.889 351.675 201.296 351.675 154.35C351.675 113.122 335.621 74.3609 306.467 45.2081Z"
              fill="#0F2137"/>
        <path d="M300.945 143.188C300.857 141.466 299.947 139.891 298.499 138.953C289.555 133.161 279.46 129.65 269.121 128.459C267.911 117.988 264.285 107.853 258.562 99.0145C257.624 97.5669 256.048 96.657 254.326 96.569C243.841 96.0322 233.283 97.9465 223.635 102.107C217.47 93.8097 209.385 86.865 199.77 81.9498C198.233 81.1649 196.415 81.1649 194.879 81.9498C185.262 86.8665 177.175 93.8119 171.009 102.112C161.358 97.9501 150.813 96.0315 140.322 96.569C138.6 96.657 137.025 97.5669 136.087 99.0145C130.36 107.86 126.751 117.962 125.537 128.426C115.216 129.613 105.131 133.136 96.1493 138.952C94.7018 139.89 93.7925 141.465 93.7038 143.188C92.3857 168.998 105.46 193.053 127.825 205.966C138.482 212.118 150.272 215.179 162.044 215.179C174.253 215.179 186.443 211.881 197.323 205.328C208.035 211.773 220.252 215.144 232.644 215.144C235.872 215.144 239.112 214.915 242.34 214.453C245.276 214.033 247.317 211.311 246.895 208.374C246.475 205.436 243.752 203.4 240.816 203.818C229.585 205.426 218.18 203.676 208.003 198.876C225.834 186.386 236.693 166.172 237.054 144.031C254.033 136.159 274.107 137.132 290.289 146.52C290.367 167.216 279.497 186.243 261.448 196.664C259.112 198.013 258.127 200.994 259.212 203.467C260.478 206.358 264.08 207.551 266.82 205.969C289.189 193.053 302.262 168.998 300.945 143.188ZM143.651 107.225C143.698 107.225 143.744 107.225 143.79 107.225C151.117 107.225 158.415 108.633 165.232 111.345C161.806 117.951 159.461 125.142 158.338 132.666C151.279 129.901 143.865 128.363 136.418 128.038C137.478 120.709 139.935 113.625 143.651 107.225ZM133.198 196.661C115.151 186.242 104.279 167.213 104.358 146.517C120.596 137.086 140.575 136.14 157.592 144.026C157.953 166.17 168.814 186.386 186.646 198.877C169.655 206.924 149.794 206.243 133.198 196.661ZM197.325 192.94C179.363 182.661 168.318 163.73 168.318 142.89C168.318 122.05 179.363 103.12 197.325 92.8404C215.288 103.12 226.333 122.05 226.333 142.89C226.333 163.73 215.288 182.661 197.325 192.94ZM236.313 132.672C235.19 125.145 232.845 117.952 229.418 111.343C236.234 108.632 243.541 107.226 250.865 107.226C250.91 107.226 250.954 107.226 250.999 107.226C254.715 113.627 257.178 120.732 258.237 128.069C250.78 128.388 243.362 129.914 236.313 132.672Z"
              fill="#0F2137"/>
        <path d="M198.042 63.0293H197.325C194.358 63.0293 191.953 65.4347 191.953 68.4014C191.953 71.368 194.358 73.7734 197.325 73.7734H198.042C201.009 73.7734 203.414 71.368 203.414 68.4014C203.414 65.4347 201.009 63.0293 198.042 63.0293Z"
              fill="#0F2137"/>
        <path d="M266.801 80.219H266.085C263.118 80.219 260.713 82.6244 260.713 85.591C260.713 88.5576 263.118 90.9631 266.085 90.9631H266.801C269.769 90.9631 272.173 88.5576 272.173 85.591C272.173 82.6244 269.769 80.219 266.801 80.219Z"
              fill="#0F2137"/>
        <path d="M135.012 80.219H134.296C131.328 80.219 128.924 82.6244 128.924 85.591C128.924 88.5576 131.328 90.9631 134.296 90.9631H135.012C137.979 90.9631 140.384 88.5576 140.384 85.591C140.384 82.6244 137.98 80.219 135.012 80.219Z"
              fill="#0F2137"/>
        <path d="M163.662 68.7593H162.946C159.978 68.7593 157.574 71.1647 157.574 74.1313C157.574 77.0979 159.978 79.5034 162.946 79.5034H163.662C166.629 79.5034 169.034 77.0979 169.034 74.1313C169.033 71.164 166.629 68.7593 163.662 68.7593Z"
              fill="#0F2137"/>
        <path d="M232.421 68.7593H231.705C228.738 68.7593 226.333 71.1647 226.333 74.1313C226.333 77.0979 228.738 79.5034 231.705 79.5034H232.421C235.389 79.5034 237.793 77.0979 237.793 74.1313C237.793 71.164 235.389 68.7593 232.421 68.7593Z"
              fill="#0F2137"/>
        <path d="M183.001 262.861H223.111C233.971 262.861 242.807 254.025 242.807 243.164C242.807 232.303 233.971 223.467 223.111 223.467H157.216C154.249 223.467 151.844 225.873 151.844 228.839C151.844 231.806 154.249 234.211 157.216 234.211H223.111C228.047 234.211 232.063 238.227 232.063 243.164C232.063 248.101 228.047 252.117 223.111 252.117H183.001C172.14 252.117 163.304 260.952 163.304 271.814C163.304 282.675 172.14 291.51 183.001 291.51H205.921C210.857 291.51 214.873 295.526 214.873 300.463C214.873 305.4 210.857 309.416 205.921 309.416H191.596C188.629 309.416 186.224 311.821 186.224 314.788C186.224 317.754 188.629 320.16 191.596 320.16H205.921C216.781 320.16 225.618 311.324 225.618 300.463C225.618 289.602 216.781 280.766 205.921 280.766H183.001C178.063 280.766 174.048 276.75 174.048 271.814C174.048 266.877 178.063 262.861 183.001 262.861Z"
              fill="#0F2137"/>
    </g>
    <defs>
        <clipPath id="clip0">
            <rect width="366" height="366" fill="white"/>
        </clipPath>
    </defs>
</svg>
